<svg fill="red" height="30pt" viewBox="0 -1 512.00175 512" width="30pt" xmlns="http://www.w3.org/2000/svg"><path d="m487.972656 262.347656c.300782-4.132812-2.804687-7.726562-6.933594-8.027344-4.136718-.292968-7.722656 2.804688-8.027343 6.933594-2.949219 40.359375-16.488281 79.011719-39.273438 112.324219l-27.941406-27.945313c79.492187-126.359374-11.8125-291.933593-161.453125-291.933593-105.101562 0-190.605469 85.5-190.605469 190.601562 0 105.097657 85.503907 190.601563 190.605469 190.601563 36.785156 0 72.253906-10.429688 102.984375-30.210938l27.898437 27.898438c-33.675781 23.457031-72.882812 37.378906-113.929687 40.378906-4.132813.304688-7.234375 3.898438-6.933594 8.027344.289063 3.945312 3.578125 6.953125 7.472657 6.953125.183593 0 .367187-.003907.554687-.019531 44.636719-3.261719 87.222656-18.652344 123.59375-44.582032l62.421875 62.421875c6.445312 6.441407 16.929688 6.441407 23.371094 0l35.394531-35.394531c6.441406-6.441406 6.441406-16.925781 0-23.371094l-62.65625-62.652344c25.242187-36.019531 40.246094-78.058593 43.457031-122.003906zm-419.234375-18.046875c0-96.828125 78.777344-175.601562 175.605469-175.601562 136.378906 0 220.707031 149.558593 150.554688 266.035156l-21.28125-21.28125c-.585938-.585937-.589844-1.5625 0-2.15625 11.835937-11.832031 7.457031-7.453125 19.277343-19.277344 10.03125-10.03125 8.058594-26.046875-2.484375-33.796875-4.125-3.03125-7.773437-3.660156-11.03125-4.449218 5.503906-78.675782-57.097656-144.855469-135.035156-144.855469-74.652344 0-135.382812 60.730469-135.382812 135.382812 0 78.457031 67.066406 141.394531 146.492187 134.90625l.425781 1.753907c1.929688 7.964843 7.789063 14.042968 15.675782 16.261718 7.875 2.210938 16.046874.09375 21.851562-5.714844l19.296875-19.292968c.410156-.410156 1.066406-.574219 1.675781-.316406.171875.074218.332032.175781.472656.316406 0 0 .003907 0 .003907.003906l21.605469 21.601562c-27.664063 17.09375-59.316407 26.082032-92.117188 26.082032-96.828125 0-175.605469-78.773438-175.605469-175.601563zm295.839844 5.890625-38.363281-9.289062c-1.792969-43.621094-37.820313-78.5625-81.871094-78.5625-45.195312 0-81.960938 36.769531-81.960938 81.960937 0 44.617188 35.84375 80.996094 80.246094 81.914063l9.25 38.230468c-69.445312 4.324219-127.917968-51.007812-127.917968-120.144531 0-66.378906 54.003906-120.382812 120.382812-120.382812 68.648438 0 123.601562 57.621093 120.234375 126.273437zm-138.371094 8.171875 12.75 52.683594c-34.414062-2.753906-61.574219-31.636719-61.574219-66.746094 0-36.921875 30.039063-66.960937 66.960938-66.960937 34.519531 0 63.027344 26.261718 66.582031 59.859375l-51.117187-12.382813c-20.570313-4.980468-38.621094 12.808594-33.601563 33.546875zm270.355469 201.40625-35.394531 35.390625c-.59375.597656-1.5625.59375-2.15625 0-3.3125-3.3125-102.097657-102.097656-105.417969-105.417968 0 0-28.128906-28.128907-28.132812-28.132813-6.410157-6.410156-16.871094-6.496094-23.371094 0l-19.292969 19.292969c-4.0625 4.066406-10.988281 2.113281-12.339844-3.464844-1.148437-4.742188-27.921875-115.375-29.671875-122.601562-2.390625-9.871094 5.824219-17.78125 15.488282-15.441407l122.546874 29.679688c5.554688 1.34375 7.546876 8.261719 3.464844 12.339843l-19.273437 19.277344c-6.445313 6.445313-6.445313 16.925782 0 23.371094 3.480469 3.480469 129.996093 129.996094 133.550781 133.546875.59375.597656.59375 1.566406 0 2.160156zm0 0"/><path d="m226.296875 487.933594c.1875.015625.371094.023437.554687.023437 3.894532 0 7.183594-3.011719 7.472657-6.953125.300781-4.132812-2.804688-7.726562-6.933594-8.027344-119.074219-8.699218-212.347656-109.144531-212.347656-228.675781 0-126.4375 102.863281-229.300781 229.300781-229.300781 119.527344 0 219.976562 93.273438 228.671875 212.347656.304687 4.132813 3.882813 7.230469 8.027344 6.933594 4.132812-.300781 7.234375-3.894531 6.933593-8.027344-4.484374-61.390625-31.816406-118.414062-76.960937-160.5625-45.375-42.363281-104.566406-65.691406-166.671875-65.691406-65.257812 0-126.605469 25.414062-172.746094 71.554688-94.140625 94.136718-94.773437 244.191406-5.867187 339.417968 42.148437 45.144532 99.171875 72.476563 160.566406 76.960938zm0 0"/></svg>
